<svg width="1368" height="649" viewBox="0 0 1368 649" fill="none" xmlns="http://www.w3.org/2000/svg">
<g filter="url(#filter0_d_128_18)">
<path id="knowledge-path-svg" d="M23.7561 18.5066C20.9983 18.3651 18.648 20.4861 18.5066 23.2439C18.3651 26.0017 20.4861 28.352 23.2439 28.4934L23.7561 18.5066ZM1341.19 630.99C1343.94 631.163 1346.32 629.069 1346.49 626.313L1349.31 581.402C1349.48 578.646 1347.39 576.271 1344.63 576.098C1341.88 575.925 1339.5 578.019 1339.33 580.775L1336.82 620.696L1296.9 618.189C1294.15 618.016 1291.77 620.11 1291.6 622.866C1291.43 625.622 1293.52 627.997 1296.28 628.17L1341.19 630.99ZM23.2439 28.4934C178.751 36.4682 247.228 65.5835 292.218 103.45C314.897 122.539 331.769 143.959 351.054 166.919C370.279 189.806 391.661 213.901 422.992 237.494L429.008 229.506C398.589 206.6 377.784 183.194 358.711 160.487C339.7 137.854 322.166 115.586 298.657 95.7997C251.272 55.9166 180.249 26.5318 23.7561 18.5066L23.2439 28.4934ZM422.992 237.494C485.291 284.408 542.267 306.799 600.608 304.809C658.854 302.823 717.581 276.558 783.465 228.025L777.534 219.974C712.418 267.941 655.645 292.927 600.267 294.815C544.982 296.701 490.209 275.592 429.008 229.506L422.992 237.494ZM783.465 228.025C848.457 180.15 933.965 144.102 1001.71 142.999C1035.51 142.449 1064.24 150.596 1084.03 169.534C1103.74 188.403 1115.47 218.834 1113.5 264.787L1123.5 265.213C1125.53 217.417 1113.38 183.784 1090.94 162.31C1068.57 140.905 1036.87 132.426 1001.54 133.001C931.035 134.148 843.543 171.349 777.534 219.974L783.465 228.025ZM1113.5 264.787C1109.44 360.028 1141.54 423.963 1186.8 477.781C1209.33 504.576 1235.14 528.88 1261.2 553.209C1287.32 577.601 1313.69 602.024 1337.75 629.307L1345.25 622.693C1320.81 594.976 1294.06 570.212 1268.02 545.9C1241.92 521.526 1216.54 497.611 1194.45 471.344C1150.46 419.037 1119.56 357.473 1123.5 265.213L1113.5 264.787Z" fill="#00FF80"/>
</g>
<defs>
<filter id="filter0_d_128_18" x="0.6" y="0.599878" width="1366.62" height="648.3" filterUnits="userSpaceOnUse" color-interpolation-filters="sRGB">
<feFlood flood-opacity="0" result="BackgroundImageFix"/>
<feColorMatrix in="SourceAlpha" type="matrix" values="0 0 0 0 0 0 0 0 0 0 0 0 0 0 0 0 0 0 127 0" result="hardAlpha"/>
<feOffset/>
<feGaussianBlur stdDeviation="8.95"/>
<feComposite in2="hardAlpha" operator="out"/>
<feColorMatrix type="matrix" values="0 0 0 0 0 0 0 0 0 1 0 0 0 0 0.501961 0 0 0 1 0"/>
<feBlend mode="normal" in2="BackgroundImageFix" result="effect1_dropShadow_128_18"/>
<feBlend mode="normal" in="SourceGraphic" in2="effect1_dropShadow_128_18" result="shape"/>
</filter>
</defs>
</svg>
