<svg width="79" height="111" viewBox="0 0 79 111" fill="none" xmlns="http://www.w3.org/2000/svg">
<g filter="url(#filter0_d_42_5306)">
<path d="M22.9368 51.1733C20.4834 53.6267 5.76343 55.4667 5.76343 57C5.76343 58.5333 20.4834 60.3733 22.9368 62.8267C25.3901 65.28 27.2301 80 28.7634 80C30.2968 80 32.1368 65.28 34.5901 62.8267C37.0434 60.3733 51.7634 58.5333 51.7634 57C51.7634 55.4667 37.0434 53.6267 34.5901 51.1733C32.1368 48.72 30.2968 34 28.7634 34C27.2301 34 25.3901 48.72 22.9368 51.1733Z" fill="url(#paint0_linear_42_5306)"/>
</g>
<g filter="url(#filter1_d_42_5306)">
<path d="M58.4575 13.7198C56.4975 14.0064 49.1303 9.8287 48.6074 10.5307C48.0845 11.2328 54.1966 17.0954 54.4832 19.0554C54.7698 21.0154 50.5921 28.3826 51.2941 28.9055C51.9962 29.4284 57.8588 23.3163 59.8188 23.0297C61.7788 22.7431 69.146 26.9208 69.6689 26.2188C70.1918 25.5167 64.0797 19.6541 63.7931 17.6941C63.5065 15.7342 67.6842 8.36695 66.9822 7.84402C66.2801 7.32108 60.4175 13.4332 58.4575 13.7198Z" fill="url(#paint1_linear_42_5306)"/>
</g>
<g filter="url(#filter2_d_42_5306)">
<path d="M63.8733 91.543C64.0779 89.4911 70.1548 83.103 69.5775 82.3979C69.0002 81.6927 61.5379 86.3883 59.486 86.1837C57.4341 85.9791 51.0461 79.9022 50.3409 80.4795C49.6357 81.0568 54.3314 88.5191 54.1267 90.571C53.9221 92.6229 47.8453 99.0109 48.4225 99.7161C48.9998 100.421 56.4621 95.7256 58.514 95.9302C60.5659 96.1349 66.9539 102.212 67.6591 101.634C68.3643 101.057 63.6686 93.5949 63.8733 91.543Z" fill="url(#paint2_linear_42_5306)"/>
</g>
<defs>
<filter id="filter0_d_42_5306" x="0.763428" y="29" width="60" height="60" filterUnits="userSpaceOnUse" color-interpolation-filters="sRGB">
<feFlood flood-opacity="0" result="BackgroundImageFix"/>
<feColorMatrix in="SourceAlpha" type="matrix" values="0 0 0 0 0 0 0 0 0 0 0 0 0 0 0 0 0 0 127 0" result="hardAlpha"/>
<feMorphology radius="4" operator="dilate" in="SourceAlpha" result="effect1_dropShadow_42_5306"/>
<feOffset dx="2" dy="2"/>
<feGaussianBlur stdDeviation="1.5"/>
<feComposite in2="hardAlpha" operator="out"/>
<feColorMatrix type="matrix" values="0 0 0 0 0 0 0 0 0 0 0 0 0 0 0 0 0 0 0.6 0"/>
<feBlend mode="normal" in2="BackgroundImageFix" result="effect1_dropShadow_42_5306"/>
<feBlend mode="normal" in="SourceGraphic" in2="effect1_dropShadow_42_5306" result="shape"/>
</filter>
<filter id="filter1_d_42_5306" x="43.5757" y="2.81229" width="35.125" height="35.1249" filterUnits="userSpaceOnUse" color-interpolation-filters="sRGB">
<feFlood flood-opacity="0" result="BackgroundImageFix"/>
<feColorMatrix in="SourceAlpha" type="matrix" values="0 0 0 0 0 0 0 0 0 0 0 0 0 0 0 0 0 0 127 0" result="hardAlpha"/>
<feMorphology radius="4" operator="dilate" in="SourceAlpha" result="effect1_dropShadow_42_5306"/>
<feOffset dx="2" dy="2"/>
<feGaussianBlur stdDeviation="1.5"/>
<feComposite in2="hardAlpha" operator="out"/>
<feColorMatrix type="matrix" values="0 0 0 0 0 0 0 0 0 0 0 0 0 0 0 0 0 0 0.6 0"/>
<feBlend mode="normal" in2="BackgroundImageFix" result="effect1_dropShadow_42_5306"/>
<feBlend mode="normal" in="SourceGraphic" in2="effect1_dropShadow_42_5306" result="shape"/>
</filter>
<filter id="filter2_d_42_5306" x="43.3838" y="75.4408" width="35.2324" height="35.2322" filterUnits="userSpaceOnUse" color-interpolation-filters="sRGB">
<feFlood flood-opacity="0" result="BackgroundImageFix"/>
<feColorMatrix in="SourceAlpha" type="matrix" values="0 0 0 0 0 0 0 0 0 0 0 0 0 0 0 0 0 0 127 0" result="hardAlpha"/>
<feMorphology radius="4" operator="dilate" in="SourceAlpha" result="effect1_dropShadow_42_5306"/>
<feOffset dx="2" dy="2"/>
<feGaussianBlur stdDeviation="1.5"/>
<feComposite in2="hardAlpha" operator="out"/>
<feColorMatrix type="matrix" values="0 0 0 0 0 0 0 0 0 0 0 0 0 0 0 0 0 0 0.6 0"/>
<feBlend mode="normal" in2="BackgroundImageFix" result="effect1_dropShadow_42_5306"/>
<feBlend mode="normal" in="SourceGraphic" in2="effect1_dropShadow_42_5306" result="shape"/>
</filter>
<linearGradient id="paint0_linear_42_5306" x1="17.1101" y1="45.3467" x2="40.4168" y2="68.6533" gradientUnits="userSpaceOnUse">
<stop stop-color="#00FF81"/>
<stop offset="1" stop-color="#044696"/>
</linearGradient>
<linearGradient id="paint1_linear_42_5306" x1="57.7769" y1="9.06488" x2="60.4994" y2="27.6846" gradientUnits="userSpaceOnUse">
<stop stop-color="#00FF81"/>
<stop offset="1" stop-color="#044696"/>
</linearGradient>
<linearGradient id="paint2_linear_42_5306" x1="68.7465" y1="92.0289" x2="49.2535" y2="90.085" gradientUnits="userSpaceOnUse">
<stop stop-color="#00FF81"/>
<stop offset="1" stop-color="#044696"/>
</linearGradient>
</defs>
</svg>
