<svg width="102" height="75" viewBox="0 0 102 75" fill="none" xmlns="http://www.w3.org/2000/svg">
<path d="M38.2078 55.0585L31.0687 66.9092C30.8833 67.187 31.7177 68.1128 33.0157 68.1128C34.3137 68.1128 50.0693 56.3984 51.0952 57.0953C52.1212 57.7922 67.8767 68.1128 69.1747 68.1128C70.4728 68.1128 71.3072 67.187 71.1218 66.9092L63.9827 55.0585C63.9827 55.0585 53.1471 47.4715 51.6515 47.0962C51.1885 47.0024 51.002 47.0024 50.5356 47.1901C50.0693 47.3777 38.2078 55.0585 38.2078 55.0585Z" fill="url(#paint0_linear_45_8)"/>
<g filter="url(#filter0_f_45_8)">
<path d="M38.2078 55.0585L31.0687 66.9092C30.8833 67.187 31.7177 68.1128 33.0157 68.1128C34.3137 68.1128 50.0693 56.3984 51.0952 57.0953L51.6515 47.0962C51.1885 47.0024 51.002 47.0024 50.5356 47.1901C50.0693 47.3777 38.2078 55.0585 38.2078 55.0585Z" fill="white" fill-opacity="0.1"/>
</g>
<path d="M23.0221 50.7653L34.7736 33.9773L23.0221 10.3099C21.8096 8.0493 19.5712 7.11664 18.3587 7.11664H2.90413C2.13041 7.11663 2.41021 8.0493 2.48434 8.23583L23.0221 50.7653Z" fill="url(#paint1_linear_45_8)"/>
<g filter="url(#filter1_f_45_8)">
<path d="M34.7736 33.9773L23.0221 10.3099C21.8096 8.0493 19.5712 7.11664 18.3587 7.11664H2.90414C2.13041 7.11663 2.41021 8.0493 2.48434 8.23583L34.7736 33.9773Z" fill="white" fill-opacity="0.1"/>
</g>
<path d="M79.1684 50.7653L67.4168 33.9773L79.1684 10.3099C80.3808 8.0493 82.6192 7.11664 83.8317 7.11664H99.2863C100.06 7.11663 99.7802 8.0493 99.7061 8.23583L79.1684 50.7653Z" fill="url(#paint2_linear_45_8)"/>
<g filter="url(#filter2_f_45_8)">
<path d="M67.4168 33.9773L79.1684 10.3099C80.3808 8.0493 82.6192 7.11664 83.8317 7.11664H99.2863C100.06 7.11663 99.7802 8.0493 99.7061 8.23583L67.4168 33.9773Z" fill="white" fill-opacity="0.1"/>
</g>
<path d="M49.3233 5.2513C48.5771 5.99743 44.1003 6.55702 44.1003 7.02336C44.1003 7.48969 48.5771 8.04928 49.3233 8.79541C50.0694 9.54155 50.629 14.0183 51.0953 14.0183C51.5616 14.0183 52.1212 9.54155 52.8674 8.79541C53.6135 8.04928 58.0903 7.48969 58.0903 7.02336C58.0903 6.55702 53.6135 5.99743 52.8674 5.2513C52.1212 4.50516 51.5616 0.0283813 51.0953 0.0283813C50.629 0.0283813 50.0694 4.50516 49.3233 5.2513Z" fill="url(#paint3_linear_45_8)"/>
<g filter="url(#filter3_d_45_8)">
<path d="M31.0429 66.9936L23.022 50.7653L43.354 21.4796C43.7271 21.0133 43.9136 21.0133 44.2867 21.4796L51.1884 33.4177L31.0429 66.9936Z" fill="url(#paint4_linear_45_8)"/>
</g>
<g filter="url(#filter4_f_45_8)">
<path d="M31.0429 66.9936L23.022 50.7653L51.1884 33.4177L31.0429 66.9936Z" fill="white" fill-opacity="0.1"/>
</g>
<g filter="url(#filter5_d_45_8)">
<path d="M71.1476 66.9703L79.1685 50.7419L58.8364 21.4563C58.0903 20.3604 57.2509 19.8008 56.3182 19.8008H46.1522C45.3128 19.8941 44.1936 20.547 43.5407 21.2931C43.5407 21.2931 43.8205 21.1066 43.9138 21.2931L71.1476 66.9703Z" fill="url(#paint5_linear_45_8)"/>
</g>
<defs>
<filter id="filter0_f_45_8" x="29.043" y="45.0346" width="24.6086" height="25.0782" filterUnits="userSpaceOnUse" color-interpolation-filters="sRGB">
<feFlood flood-opacity="0" result="BackgroundImageFix"/>
<feBlend mode="normal" in="SourceGraphic" in2="BackgroundImageFix" result="shape"/>
<feGaussianBlur stdDeviation="1" result="effect1_foregroundBlur_45_8"/>
</filter>
<filter id="filter1_f_45_8" x="0.374023" y="5.11664" width="36.3997" height="30.8607" filterUnits="userSpaceOnUse" color-interpolation-filters="sRGB">
<feFlood flood-opacity="0" result="BackgroundImageFix"/>
<feBlend mode="normal" in="SourceGraphic" in2="BackgroundImageFix" result="shape"/>
<feGaussianBlur stdDeviation="1" result="effect1_foregroundBlur_45_8"/>
</filter>
<filter id="filter2_f_45_8" x="65.4167" y="5.11664" width="36.3997" height="30.8607" filterUnits="userSpaceOnUse" color-interpolation-filters="sRGB">
<feFlood flood-opacity="0" result="BackgroundImageFix"/>
<feBlend mode="normal" in="SourceGraphic" in2="BackgroundImageFix" result="shape"/>
<feGaussianBlur stdDeviation="1" result="effect1_foregroundBlur_45_8"/>
</filter>
<filter id="filter3_d_45_8" x="14.022" y="17.1299" width="40.1665" height="57.8637" filterUnits="userSpaceOnUse" color-interpolation-filters="sRGB">
<feFlood flood-opacity="0" result="BackgroundImageFix"/>
<feColorMatrix in="SourceAlpha" type="matrix" values="0 0 0 0 0 0 0 0 0 0 0 0 0 0 0 0 0 0 127 0" result="hardAlpha"/>
<feOffset dx="-3" dy="2"/>
<feGaussianBlur stdDeviation="3"/>
<feComposite in2="hardAlpha" operator="out"/>
<feColorMatrix type="matrix" values="0 0 0 0 0 0 0 0 0 0 0 0 0 0 0 0 0 0 0.25 0"/>
<feBlend mode="normal" in2="BackgroundImageFix" result="effect1_dropShadow_45_8"/>
<feBlend mode="normal" in="SourceGraphic" in2="effect1_dropShadow_45_8" result="shape"/>
</filter>
<filter id="filter4_f_45_8" x="21.022" y="31.4177" width="32.1665" height="37.5759" filterUnits="userSpaceOnUse" color-interpolation-filters="sRGB">
<feFlood flood-opacity="0" result="BackgroundImageFix"/>
<feBlend mode="normal" in="SourceGraphic" in2="BackgroundImageFix" result="shape"/>
<feGaussianBlur stdDeviation="1" result="effect1_foregroundBlur_45_8"/>
</filter>
<filter id="filter5_d_45_8" x="34.5408" y="15.8008" width="47.6277" height="59.1694" filterUnits="userSpaceOnUse" color-interpolation-filters="sRGB">
<feFlood flood-opacity="0" result="BackgroundImageFix"/>
<feColorMatrix in="SourceAlpha" type="matrix" values="0 0 0 0 0 0 0 0 0 0 0 0 0 0 0 0 0 0 127 0" result="hardAlpha"/>
<feOffset dx="-3" dy="2"/>
<feGaussianBlur stdDeviation="3"/>
<feComposite in2="hardAlpha" operator="out"/>
<feColorMatrix type="matrix" values="0 0 0 0 0 0 0 0 0 0 0 0 0 0 0 0 0 0 0.25 0"/>
<feBlend mode="normal" in2="BackgroundImageFix" result="effect1_dropShadow_45_8"/>
<feBlend mode="normal" in="SourceGraphic" in2="effect1_dropShadow_45_8" result="shape"/>
</filter>
<linearGradient id="paint0_linear_45_8" x1="-12.044" y1="68.2054" x2="71.1218" y2="68.2054" gradientUnits="userSpaceOnUse">
<stop offset="0.32966" stop-color="#00FF81"/>
<stop offset="1" stop-color="#044696"/>
</linearGradient>
<linearGradient id="paint1_linear_45_8" x1="2.13041" y1="7.11663" x2="23.1153" y2="50.7653" gradientUnits="userSpaceOnUse">
<stop stop-color="#00FF81"/>
<stop offset="1" stop-color="#044696"/>
</linearGradient>
<linearGradient id="paint2_linear_45_8" x1="100.06" y1="7.11663" x2="67.4168" y2="75.8539" gradientUnits="userSpaceOnUse">
<stop stop-color="#044696"/>
<stop offset="1" stop-color="#00FF81"/>
</linearGradient>
<linearGradient id="paint3_linear_45_8" x1="47.5512" y1="3.47923" x2="54.6394" y2="10.5675" gradientUnits="userSpaceOnUse">
<stop stop-color="#00FF81"/>
<stop offset="1" stop-color="#044696"/>
</linearGradient>
<linearGradient id="paint4_linear_45_8" x1="17.0529" y1="90.1236" x2="51.1884" y2="33.3245" gradientUnits="userSpaceOnUse">
<stop stop-color="#00FF81"/>
<stop offset="1" stop-color="#044696"/>
</linearGradient>
<linearGradient id="paint5_linear_45_8" x1="91.0133" y1="100.569" x2="36.5457" y2="8.04931" gradientUnits="userSpaceOnUse">
<stop stop-color="#00FF81"/>
<stop offset="1" stop-color="#044696"/>
</linearGradient>
</defs>
</svg>
